<svg xmlns="http://www.w3.org/2000/svg" xmlns:xlink="http://www.w3.org/1999/xlink" id="a" viewBox="0 0 756.07 95.88"><defs><style>.d{fill:url(#c);}.d,.e{fill-rule:evenodd;}.e{fill:url(#b);}</style><linearGradient id="b" x1="437.42" y1="115.31" x2="439.2" y2="-6.77" gradientTransform="matrix(1, 0, 0, 1, 0, 0)" gradientUnits="userSpaceOnUse"><stop offset="0" stop-color="#1920b0"></stop><stop offset=".21" stop-color="#1746c3"></stop><stop offset=".43" stop-color="#1566d2"></stop><stop offset=".63" stop-color="#147ddd"></stop><stop offset=".83" stop-color="#148be4"></stop><stop offset="1" stop-color="#1490e7"></stop></linearGradient><linearGradient id="c" x1="47.45" y1="96.79" x2="47.92" y2=".91" gradientTransform="matrix(1, 0, 0, 1, 0, 0)" gradientUnits="userSpaceOnUse"><stop offset="0" stop-color="#1920b0"></stop><stop offset=".32" stop-color="#164ec6"></stop><stop offset=".61" stop-color="#1572d8"></stop><stop offset=".85" stop-color="#1488e3"></stop><stop offset="1" stop-color="#1490e7"></stop></linearGradient></defs><path d="M160.15,60.56c-3.34,3.34-8.34,5.15-12.77,5.15-12.55,0-17.41-8.78-17.48-17.19-.07-8.49,5.22-17.63,17.48-17.63,4.42,0,8.92,1.52,12.26,4.79l6.38-6.17c-5.22-5.15-11.75-7.76-18.64-7.76-18.35,0-26.98,13.49-26.91,26.77,.07,13.2,8.05,26.18,26.91,26.18,7.33,0,14.07-2.39,19.29-7.54l-6.53-6.6h0Zm52.75,12.98h10.45l-22.78-50.85h-10.44l-22.78,50.85h10.37l4.35-9.57h26.55l4.28,9.57h0Zm-8.12-18.5h-18.86l9.43-21.66,9.43,21.66h0Zm34.48-23.21h14.36c12.19,0,12.26,17.99,0,17.99h-14.36V31.84h0Zm14.36-9.14c-7.98-.07-15.96,0-23.94,0v50.85h9.57v-14.94h14.36c24.88,0,24.81-35.9,0-35.9h0Zm37.45,50.85V22.7h-9.5v50.85h9.5Zm27.22,0h9.57V31.4h16.1v-8.7h-41.78v8.7h16.1v42.14h0Zm74.59,0h10.45l-22.78-50.85h-10.44l-22.78,50.85h10.37l4.35-9.57h26.55l4.28,9.57h0Zm-8.12-18.5h-18.86l9.43-21.66,9.43,21.66h0Zm26.42-32.35v50.85h35.69v-8.85h-26.11V22.7h-9.57Zm98.09,37.86c-3.34,3.34-8.34,5.15-12.77,5.15-12.55,0-17.41-8.78-17.48-17.19-.07-8.49,5.22-17.63,17.48-17.63,4.42,0,8.92,1.52,12.26,4.79l6.38-6.17c-5.22-5.15-11.75-7.76-18.64-7.76-18.35,0-26.98,13.49-26.91,26.77,.07,13.2,8.05,26.18,26.91,26.18,7.33,0,14.07-2.39,19.29-7.54l-6.53-6.6h0Zm38.54-38.81c-17.55,0-26.11,13.42-26.11,26.77s8.27,26.18,26.11,26.18,25.89-13.13,26.04-26.26c.15-13.27-8.56-26.69-26.04-26.69h0Zm0,8.7c11.97,0,16.76,9.57,16.61,18.13-.15,8.34-4.64,17.34-16.61,17.34s-16.47-8.92-16.68-17.26c-.22-8.56,4.71-18.21,16.68-18.21h0Zm69.22,23.77l-24.88-31.53h-7.76v50.85h9.57V39.26l26.69,34.28h5.95V22.7h-9.57v31.53h0Zm60.88-23.11c-3.84-7.83-12.04-10.08-19.95-10.08-9.36,.07-19.66,4.35-19.66,14.8,0,11.39,9.57,14.14,19.95,15.38,6.75,.73,11.75,2.68,11.75,7.47,0,5.51-5.66,7.62-11.68,7.62s-12.04-2.47-14.29-8.05l-7.98,4.13c3.77,9.28,11.75,12.48,22.12,12.48,11.32,0,21.33-4.86,21.33-16.18,0-12.11-9.86-14.87-20.45-16.18-6.09-.73-11.32-1.96-11.32-6.38,0-3.77,3.41-6.75,10.52-6.75,5.51,0,10.3,2.76,12.04,5.66l7.62-3.92h0Zm21.35,42.43V22.7h-9.5v50.85h9.5Zm55.44-44.46c-5.22-5.15-12.04-7.76-18.86-7.76-17.92,0-26.84,13.2-26.84,27.49,0,13.35,7.76,25.89,26.84,25.89,8.92,0,15.23-3.41,20.24-9.14v-21.4h-21.76v8.56h12.98v8.99c-3.99,3.19-7.47,4.06-11.46,4.06-12.62,0-17.48-8.63-17.48-16.97,0-10.45,6.6-18.71,17.48-18.71,4.42,0,9.5,1.81,12.91,5.08l5.95-6.09Z" style="fill:url(#b); fill-rule:evenodd;"></path><path d="M95.35,55.12h-21.57c-1.23,4.45-3.61,8.51-6.88,11.78-5.04,5.04-11.83,7.85-18.96,7.85s-13.91-2.81-18.96-7.85c-5.04-5.04-7.85-11.83-7.85-18.96s2.81-13.91,7.85-18.96c5.04-5.04,11.82-7.85,18.96-7.85s13.92,2.81,18.96,7.85c3.27,3.28,5.64,7.33,6.88,11.78h21.57c-1.52-10.11-6.25-19.46-13.51-26.72C72.82,5.02,60.7,0,47.94,0S23.06,5.02,14.04,14.04C5.02,23.06,0,35.18,0,47.94s5.02,24.88,14.04,33.9c9.02,9.02,21.14,14.04,33.9,14.04s24.88-5.02,33.9-14.04c7.26-7.26,11.99-16.6,13.51-26.72h0Zm-7.43-20.48h-10.03l-.57-1.15c-1.59-3.22-3.7-6.16-6.24-8.7-6.16-6.16-14.44-9.59-23.15-9.59s-16.99,3.43-23.15,9.59c-6.16,6.16-9.59,14.44-9.59,23.15s3.43,16.99,9.59,23.15c6.16,6.16,14.44,9.59,23.15,9.59s16.99-3.43,23.15-9.59c2.54-2.54,4.65-5.48,6.24-8.7l.57-1.15h10.03l-1.19,2.85c-2.11,5.06-5.21,9.67-9.08,13.55-7.9,7.9-18.53,12.3-29.71,12.3s-21.8-4.4-29.71-12.3c-7.9-7.9-12.3-18.53-12.3-29.71s4.4-21.8,12.3-29.71c7.9-7.9,18.53-12.3,29.71-12.3s21.8,4.4,29.71,12.3c3.88,3.88,6.98,8.49,9.09,13.55l1.19,2.85h0Zm-52.13,26.42l-.48-.49c-3.36-3.37-5.25-7.87-5.25-12.64s1.87-9.28,5.24-12.64c3.37-3.37,7.88-5.24,12.64-5.24s9.27,1.89,12.64,5.25l.47,.47c1.36,1.47,2.47,3.15,3.27,4.98h-6.83c-.16-.21-.33-.42-.5-.62v-.07l-.6-.6c-2.25-2.25-5.28-3.48-8.45-3.48s-6.2,1.25-8.45,3.5c-2.25,2.25-3.5,5.27-3.5,8.45s1.24,6.21,3.48,8.45l.6,.6h.06c2.16,1.87,4.92,2.9,7.8,2.9,3.17,0,6.2-1.23,8.44-3.47l.03-.03c.4-.4,.76-.82,1.1-1.27h6.8c-.89,2.02-2.16,3.87-3.73,5.45l-.02,.02c-3.36,3.36-7.87,5.24-12.63,5.24s-8.84-1.7-12.15-4.76Z" style="fill:url(#c); fill-rule:evenodd;"></path></svg>